<?xml version="1.0" encoding="utf-8"?>
<!-- Generator: Adobe Illustrator 19.0.0, SVG Export Plug-In . SVG Version: 6.00 Build 0)  -->
<svg version="1.1" id="Capa_1" xmlns="http://www.w3.org/2000/svg" xmlns:xlink="http://www.w3.org/1999/xlink" x="0px" y="0px"
	 viewBox="0 0 354.9 119.4" style="enable-background:new 0 0 354.9 119.4;" xml:space="preserve">
<path id="XMLID_38_" style="fill:#C33422;" d="M189.7,92.9l3.8,4.4c0.2,0.2-0.1,0.4-0.1,0.4c-1.5,0.8-2.6,2-3.5,3.5
	c-0.2,0.3-0.4,0.1-0.4,0.1l-4.8-3.6c0,0-0.2-0.1,0-0.4c1.4-1.9,2.7-3.2,4.7-4.4C189.4,92.8,189.6,92.7,189.7,92.9z"/>
<path id="XMLID_37_" style="fill:#BA2A16;" d="M183,100l5.6,2.7c0.3,0.1,0.1,0.3,0.1,0.3c-0.8,1.9-1.3,3.4-1.6,5.3
	c-0.1,0.3-0.3,0.2-0.3,0.2l-6.3-2.8c0,0-0.2-0.1-0.1-0.3c0.3-0.9,1.7-4.3,2.3-5.5C182.8,100.1,182.9,99.9,183,100z"/>
<path id="XMLID_36_" style="fill:#A4201A;" d="M179.9,108.8c1.3,0.4,6.7,1.6,6.7,1.6c0.3,0.1,0.2,0.3,0.2,0.3
	c-0.4,2.9-0.3,5.2-0.3,6c0,0.3-0.3,0.3-0.3,0.3c-1.4,0-7.9,0-7.9,0c-0.3,0-0.3-0.3-0.3-0.3c0.1-1,0.3-3.8,1.4-7.8
	C179.5,109,179.6,108.7,179.9,108.8z"/>
<path id="XMLID_35_" style="fill:#C33422;" d="M205.8,92.9l-3.8,4.4c-0.2,0.2,0.1,0.4,0.1,0.4c1.5,0.8,2.6,2,3.5,3.5
	c0.2,0.3,0.4,0.1,0.4,0.1l4.8-3.6c0,0,0.2-0.1,0-0.4c-1.4-1.9-2.7-3.2-4.7-4.4C206.1,92.8,205.9,92.7,205.8,92.9z"/>
<path id="XMLID_34_" style="fill:#C64C3E;" d="M197.7,96.6c0.6,0,1.8,0.1,2.4,0.2c0.3,0,0.4-0.1,0.4-0.1l2.4-5c0,0,0.2-0.2-0.2-0.3
	c-1.8-0.6-2.7-0.9-4.9-0.9c-2.2,0-3.2,0.3-4.9,0.9c-0.3,0.1-0.2,0.3-0.2,0.3l2.4,5c0,0,0.1,0.2,0.4,0.1
	C195.9,96.7,197.1,96.6,197.7,96.6z"/>
<path id="XMLID_14_" style="fill:#BA2A16;" d="M212.4,100l-5.6,2.7c-0.3,0.1-0.1,0.3-0.1,0.3c0.8,1.9,1.3,3.4,1.6,5.3
	c0.1,0.3,0.3,0.2,0.3,0.2l6.3-2.8c0,0,0.2-0.1,0.1-0.3c-0.3-0.9-1.7-4.3-2.3-5.5C212.7,100.1,212.6,99.9,212.4,100z"/>
<path id="XMLID_32_" style="fill:#A4201A;" d="M215.6,108.8c-1.3,0.4-6.7,1.6-6.7,1.6c-0.3,0.1-0.2,0.3-0.2,0.3
	c0.4,2.9,0.3,5.2,0.3,6c0,0.3,0.3,0.3,0.3,0.3c1.4,0,7.9,0,7.9,0c0.3,0,0.3-0.3,0.3-0.3c-0.1-1-0.3-3.8-1.4-7.8
	C215.9,109,215.9,108.7,215.6,108.8z"/>
<path id="XMLID_30_" style="fill:#C64C3E;" d="M302.1,117v-13.1l0.3-2.8l-5.5,15.9h-3.4l-5.5-15.9l0.3,2.8V117h-4.1V93.2h4.8
	l5.7,16.2c0.4,1.1,0.5,2.1,0.5,2.1s0.2-1,0.5-2.1l5.7-16.2h4.8V117H302.1z"/>
<path id="XMLID_28_" style="fill:#C64C3E;" d="M310.7,117V93.2h4.1V117H310.7z"/>
<path id="XMLID_26_" style="fill:#C64C3E;" d="M330.5,117l-7.5-16.7c0,0,0.3,1.6,0.3,3.1V117h-4.1V93.2h4.8l5.3,12
	c0.6,1.4,1.1,3.4,1.1,3.4c0-3.1,0-0.2,0-15.5h4.1V117H330.5z"/>
<path id="XMLID_24_" style="fill:#C64C3E;" d="M339,117V93.2h12.9v3.7h-8.7v5.9h6.7v3.7h-6.7v6.8h9.1v3.7H339z"/>
<path id="XMLID_21_" style="fill:#A4201A;" d="M271.8,117H265V93.2h7.2c6.8,0,8.9,6.1,8.9,12C281,111.1,278.5,117,271.8,117z
	 M272,96.8H269v16.7h2.7c4.4,0,5.1-4.8,5.1-8.2C276.8,101.9,276.4,96.8,272,96.8z"/>
<path id="XMLID_19_" style="fill:#A4201A;" d="M248.7,117V93.2h12.9v3.7h-8.7v5.9h6.7v3.7h-6.7v6.8h9.1v3.7H248.7z"/>
<path id="XMLID_16_" style="fill:#A4201A;" d="M242.5,117l-7.8-8.5v8.5h-4.1V93.2h5.5c6.6,0,9.1,3.3,9.1,7.6c0,3.6-2.3,7.3-5.8,7.6
	l6.8,7v1.7H242.5z M236.1,96.8h-1.4v8.2c0,0,1.2,0.5,2.2,0.5c2.7,0,4.1-2.2,4.1-4.7C241,98.3,239.5,96.8,236.1,96.8z"/>
<path style="fill:#91181D;" d="M18.7,3.1c-6.2,0-12.4,0-18.7,0C0.1,26.7,0.1,50.4,0,74c11.2,0,22.4,0,33.7,0
	c6.4,0,13.1-0.9,18.8-4.3C64,63.6,71.7,50.5,70.8,37.3C70.9,19.5,55.1,3.5,37.3,3.1C31.1,3.1,24.9,3.1,18.7,3.1L18.7,3.1z
	 M34.6,14.8c9.7-0.3,19.5,5.8,22.9,15.1c4.9,10.9-0.8,24.7-11.4,29.8C41.9,62,37,62.5,32.3,62c-11.3-1.4-20.8-12.1-20.5-23.5
	c-0.2-10.4,7.5-20.1,17.4-22.8C31,15.1,32.8,14.8,34.6,14.8L34.6,14.8z"/>
<path style="fill:#91181D;" d="M31.4,27.5c7.8-3.3,17.3,3.9,15.8,12.4c-0.4,8.6-11.4,13.3-18.3,8.5C21,43.6,22.5,30.1,31.4,27.5
	L31.4,27.5z"/>
<g>
	<path style="fill:#181513;" d="M220.6,0c1.1,0,3.4,0.1,4.6,0.1c0,24.6,0,49.2,0,73.8c-1.1,0-3.4,0-4.5,0
		C220.6,49.3,220.6,24.7,220.6,0L220.6,0z"/>
	<path style="fill:#181513;" d="M114.2,3.2c-5.1,0-10.2,0.3-15.3,0.1C99,26.8,99,50.4,98.9,74c7.4,0,14.8,0.1,22.2-0.1
		c5.1-0.3,10.8-0.7,14.7-4.3c5.7-4.9,7.7-12.7,8.3-19.9c0.9-9.9,0.9-20-1.3-29.7c-1.7-6.9-6.2-13.9-13.5-15.6
		C124.4,3.4,119.3,3.2,114.2,3.2z M115.8,7.6c3.9,0,7.8,0.2,11.7,1.1c6.6,1.5,10,8.4,11,14.6c1.6,9.9,1.5,20.1,0.2,30
		c-0.8,6.4-4.3,13.5-11.1,15.1c-7.7,1.9-15.7,0.8-23.5,1.1c0-20.6,0-41.3,0-61.9C107.9,7.8,111.9,7.6,115.8,7.6z"/>
	<path style="fill:#181513;" d="M156.8,8.3c2.1,0,4.2,0,6.3,0c0,2.2,0,4.5,0,6.7h-6.2C156.8,12.8,156.8,10.6,156.8,8.3z"/>
	<path style="fill:#181513;" d="M335.9,11.9c1.1,0,3.4,0,4.5,0c0,4.7,0,9.5,0,14.2c4.9,0,9.7,0,14.5,0c0,1,0,2.9,0,3.9
		c-4.9,0.1-9.7,0-14.5,0c0,12.1-0.1,24.1,0,36.2c-0.3,1.8,1.1,3.8,3.1,3.6c3.1,0.1,6.1-0.5,9.2-0.8c0,1,0.1,3,0.1,4
		c-4.2,0.4-8.6,1.4-12.8,0.5c-3.2-0.7-4.2-4.4-4.1-7.2c0-12.1,0-24.2,0-36.3c-2.6,0-5.1,0-7.7-0.1c-0.9-4.6,4.9-3,7.7-4
		C335.9,21.3,335.9,16.6,335.9,11.9L335.9,11.9z"/>
	<path style="fill:#181513;" d="M189.9,24.7c-4.2,0.1-8.3,0.6-12.4,1.4c0.1,1.5,0.1,3,0.1,4.5c6.9-1.1,14.3-2.9,21.1-0.6
		c6.2,2.8,3.4,10.9,4,16.2c-7.9,0.1-16.4-0.4-23.6,3.2c-8.8,5-7.3,19.6,1.9,23.3c7.1,2.6,15.5,1.1,22.1-2.4c0.1,2.4,1.5,3.3,4.1,2.8
		c-0.2-13.1,0.2-26.2-0.2-39.3c-0.2-5-5.3-7.7-9.7-8.5C194.9,24.8,192.4,24.7,189.9,24.7z M202.9,50.3c0,5-0.1,10.1,0,15.2
		c-5.6,3.2-12.4,5.5-18.8,3.9c-7.1-2.2-8.7-13.6-1.7-16.8C188.9,50.2,196,50.2,202.9,50.3z"/>
	<path style="fill:#181513;" d="M242.9,29.9c6.8-3.2,14.5-5.1,22-3.9c4.8,1,9.8,4.7,9.6,10c0.1,12.6,0,25.3,0.1,37.9
		c-1.1,0-3.3,0-4.4,0c0-12.3,0.1-24.5,0-36.8c0.1-3.3-2.4-6-5.5-6.8c-7.4-1.3-15.2,0-21.6,4.1c0,13.2,0,26.3,0,39.5
		c-1.1,0-3.4,0-4.5,0c0-15.7,0-31.4,0-47.1C241,26.6,242.9,27.1,242.9,29.9L242.9,29.9z"/>
	<path style="fill:#181513;" d="M303.3,24.8c-4.3,0.1-8.6,1.5-11.9,4.2c-5.9,5.7-6.5,14.5-6.3,22.3c-0.1,7.4,2,16,8.8,20.2
		c7.8,4,16.9,2.3,25.2,1.3c0-1.1-0.1-3.3-0.1-4.4c-7.4,1.1-15.8,3.2-22.7-0.8c-5.7-3.9-6.3-11.4-6.6-17.7c10.4-0.1,20.8,0,31.1,0
		c-0.1-7.3,0.7-16.1-5.2-21.6C312,25.9,307.6,24.7,303.3,24.8z M304.2,29c3.5,0,7,1.1,9.3,3.8c2.4,3.9,2.3,8.6,2.3,13
		c-8.6-0.2-17.3-0.1-25.9-0.2c0.3-5.9,1.7-13.5,8.1-15.8C300,29.3,302.1,29,304.2,29z"/>
	<path style="fill:#181513;" d="M157.8,74c0-15.7,0.1-31.3,0-47c1.1,0,3.3,0,4.4,0c-0.1,15.7-0.1,31.3,0,47
		C161.1,74,158.9,74,157.8,74L157.8,74z"/>
</g>
</svg>
