<svg xmlns="http://www.w3.org/2000/svg" viewBox="-7 35.5 354.9 119.4"><path d="M17.3 73l7.7 9c.4.4-.2.8-.2.8-3.1 1.6-5.3 4.1-7.1 7.1-.4.6-.8.2-.8.2l-9.8-7.3s-.4-.2 0-.8c2.9-3.9 5.5-6.5 9.6-9 0-.2.4-.4.6 0z" fill="#c33422"/><path d="M3.6 87.5L15 93c.6.2.2.6.2.6-1.6 3.9-2.6 6.9-3.3 10.8-.2.6-.6.4-.6.4l-12.8-5.7s-.4-.2-.2-.6c.6-1.8 3.5-8.8 4.7-11.2.2.4.4 0 .6.2z" fill="#ba2a16"/><path d="M-2.7 105.4c2.6.8 13.6 3.3 13.6 3.3.6.2.4.6.4.6-.8 5.9-.6 10.6-.6 12.2 0 .6-.6.6-.6.6H-6c-.6 0-.6-.6-.6-.6.2-2 .6-7.7 2.9-15.9.2.2.4-.4 1-.2z" fill="#a4201a"/><path d="M50 73l-7.7 9c-.4.4.2.8.2.8 3.1 1.6 5.3 4.1 7.1 7.1.4.6.8.2.8.2l9.8-7.3s.4-.2 0-.8c-2.9-3.9-5.5-6.5-9.6-9 .1-.2-.4-.4-.6 0z" fill="#c33422"/><path d="M33.6 80.6c1.2 0 3.7.2 4.9.4.6 0 .8-.2.8-.2l4.9-10.2s.4-.4-.4-.6c-3.7-1.2-5.5-1.8-10-1.8s-6.5.6-10 1.8c-.6.2-.4.6-.4.6l4.9 10.2s.2.4.8.2c.8-.2 3.2-.4 4.5-.4z" fill="#c64c3e"/><path d="M63.5 87.5L52.1 93c-.6.2-.2.6-.2.6 1.6 3.9 2.6 6.9 3.3 10.8.2.6.6.4.6.4l12.8-5.7s.4-.2.2-.6c-.6-1.8-3.5-8.8-4.7-11.2 0 .4-.2 0-.6.2z" fill="#ba2a16"/><path d="M70 105.4c-2.6.8-13.6 3.3-13.6 3.3-.6.2-.4.6-.4.6.8 5.9.6 10.6.6 12.2 0 .6.6.6.6.6h16.1c.6 0 .6-.6.6-.6-.2-2-.6-7.7-2.9-15.9-.4.2-.4-.4-1-.2z" fill="#a4201a"/><path d="M246.1 122.1V95.4l.6-5.7-11.2 32.4h-6.9l-11.2-32.4.6 5.7v26.7h-8.3V73.6h9.8l11.6 33a19.6 19.6 0 0 1 1 4.3l1-4.3 11.6-33h9.8v48.5h-8.4zm17.5 0V73.6h8.3v48.5h-8.3zm40.4 0l-15.3-34s.6 3.3.6 6.3v27.7H281V73.6h9.8L301.6 98c1.2 2.9 2.2 6.9 2.2 6.9V73.3h8.3V122H304zm17.3 0V73.6h26.3v7.5h-17.7v12h13.6v7.5h-13.6v13.8h18.5v7.5c-.1.2-27.1.2-27.1.2z" fill="#c64c3e"/><path d="M184.4 122.1h-13.8V73.6h14.7c13.8 0 18.1 12.4 18.1 24.4-.2 12.1-5.3 24.1-19 24.1zm.4-41.1h-6.1v34h5.5c9 0 10.4-9.8 10.4-16.7s-.8-17.3-9.8-17.3zm-47.4 41.1V73.6h26.3v7.5H146v12h13.6v7.5H146v13.8h18.5v7.5c0 .2-27.1.2-27.1.2zm-12.6 0l-15.9-17.3v17.3h-8.3V73.6h11.2c13.4 0 18.5 6.7 18.5 15.5 0 7.3-4.7 14.9-11.8 15.5l13.8 14.3v3.5h-7.5v-.3zM111.7 81h-2.9v16.7s2.4 1 4.5 1c5.5 0 8.3-4.5 8.3-9.6.1-5.1-2.9-8.1-9.9-8.1z" fill="#a4201a"/></svg>